HIERARCHY
ROOT base
{
	OFFSET 0.0 0.0 0.0
	CHANNELS 6 Xposition Yposition Zposition Zrotation Yrotation Xrotation
	JOINT root
	{
		OFFSET 0 0 0
		CHANNELS 6 Xposition Yposition Zposition Zrotation Yrotation Xrotation
		JOINT chest
		{
			OFFSET 0 4.72302 0
			CHANNELS 3 Zrotation Yrotation Xrotation
			JOINT neck
			{
				OFFSET 0 4.47788 0
				CHANNELS 3 Zrotation Yrotation Xrotation
				End Site
				{
					OFFSET 0.0 0.0 0.0
				}
			}
			JOINT right_shoulder
			{
				OFFSET -0.481 4.87 3.6622
				CHANNELS 3 Zrotation Yrotation Xrotation
				JOINT right_elbow
				{
					OFFSET 0 -5.49576 0
					CHANNELS 3 Zrotation Yrotation Xrotation
					JOINT right_wrist
					{
						OFFSET 0 -5.17894 0
						CHANNELS 3 Zrotation Yrotation Xrotation
						End Site
						{
							OFFSET 0.0 0.0 0.0
						}
					}
				}
			}
			JOINT left_shoulder
			{
				OFFSET -0.481 4.87 -3.6622
				CHANNELS 3 Zrotation Yrotation Xrotation
				JOINT left_elbow
				{
					OFFSET 0 -5.49576 0
					CHANNELS 3 Zrotation Yrotation Xrotation
					JOINT left_wrist
					{
						OFFSET 0 -5.17894 0
						CHANNELS 3 Zrotation Yrotation Xrotation
						End Site
						{
							OFFSET 0.0 0.0 0.0
						}
					}
				}
			}
		}
		JOINT right_hip
		{
			OFFSET 0 0 1.69774
			CHANNELS 3 Zrotation Yrotation Xrotation
			JOINT right_knee
			{
				OFFSET 0 -8.43092 0
				CHANNELS 3 Zrotation Yrotation Xrotation
				JOINT right_ankle
				{
					OFFSET 0 -8.1974 0
					CHANNELS 3 Zrotation Yrotation Xrotation
					End Site
					{
						OFFSET 0.0 0.0 0.0
					}
				}
			}
		}
		JOINT left_hip
		{
			OFFSET 0 0 -1.69774
			CHANNELS 3 Zrotation Yrotation Xrotation
			JOINT left_knee
			{
				OFFSET 0 -8.43092 0
				CHANNELS 3 Zrotation Yrotation Xrotation
				JOINT left_ankle
				{
					OFFSET 0 -8.1974 0
					CHANNELS 3 Zrotation Yrotation Xrotation
					End Site
					{
						OFFSET 0.0 0.0 0.0
					}
				}
			}
		}
	}
	JOINT red_arrow
	{
		OFFSET 0 0 0
		CHANNELS 3 Zrotation Yrotation Xrotation
		End Site
		{
			OFFSET 0.0 0.0 0.0
		}
	}
	JOINT blue_arrow
	{
		OFFSET 0 0 0
		CHANNELS 3 Zrotation Yrotation Xrotation
		End Site
		{
			OFFSET 0.0 0.0 0.0
		}
	}
}
MOTION
Frames: 7
Frame Time: 0.0333333333333333
4.20018026232719 0 30.1767000198364 0 -27.1245792373663 0 0 16.2838801383972 0 -80.5189980126415 9.08254779411475 70.4488208655399 -2.06383355443591 10.0326658695904 -14.050999343658 -0.957341613677074 -0.966953679239827 13.7893997631892 27.5593686225928 21.4838907382113 -31.6688566390031 34.9362434347914 0 0 0 0 0 41.1284401299917 -53.3300574436362 35.2219434842187 46.4760836790543 0 0 0 0 0 129.843221654265 1.28622046041383 -8.57983048237958 -47.1370342548473 0 0 12.6878263230331 5.77784905576288 -4.17908403013318 103.136142995755 10.6880241998803 0.459277332821865 -44.635371603398 0 0 10.6709940825869 18.6757368371391 -14.6902860801404 0 0 0 0 0 0
4.11804622411728 0 29.2797896146774 0 -27.3500567566828 0 0 14.8059411644936 0 -72.5719209019171 -1.28529672762595 65.0458885883977 -11.0001464474617 5.11156028823806 -8.24284479370972 1.02557308247646 0.891214219041429 16.2134413044272 31.4913178415476 23.7349610028721 -27.648577485564 31.5561843051326 0 0 0 0 0 48.6040589029021 -58.7787173874631 28.652331002927 40.3345483321081 0 0 0 0 0 129.369476340881 7.16731376436652 -9.5736537027391 -66.772024948693 0 0 18.6067688460157 -1.59076680300057 -3.52052815220028 96.8784487985108 15.0643128952426 1.26016708828546 -55.4196392462011 0 0 33.0156997264079 16.062687466496 -12.5021770119406 0 0 0 0 0 0
4.18349859118462 0 28.7751567721367 0 -28.4746419243209 0 0 14.364106297493 0 -68.3195090916954 -8.22421621255786 61.1740781023089 -19.8717721823216 3.21736315349885 -4.35659059963326 -2.50310187521327 2.10730941075173 18.6274402397026 32.6507156303155 21.5058905126558 -24.4788587755728 29.1440142072834 0 0 0 0 0 49.9299636896311 -53.225781678128 23.7194745096571 34.0434079366765 0 0 0 0 0 124.276841636607 8.83843081143906 -9.15594341231539 -70.3995930584002 0 0 18.144968011737 -4.69570381112856 -2.48517554476616 94.3141747302423 16.1942835249012 3.75226055742587 -63.0516004172196 0 0 35.0094193007714 11.9800901284207 -12.1620087731294 0 0 0 0 0 0
4.28898445367813 0 28.4082246780395 0 -30.0490926304192 0 0 14.2369229674339 0 -64.6828760892705 -13.8225917751815 55.9359958103156 -25.1752577097073 1.7582636391899 0.979141075587034 -7.11940732095872 3.72420820630324 21.3157250291293 32.687764105598 20.2306884094169 -23.5267666046904 26.6642508498604 0 0 0 0 0 46.5577532648321 -44.7415787992073 23.9869733013551 29.5763617666506 0 0 0 0 0 118.265619187162 6.25940197088368 -10.6461702339308 -70.2931308998072 0 0 16.8006316720187 -4.44628143267306 -2.16545581162258 90.7819173168989 15.5399255922304 5.6570052003965 -66.262929968717 0 0 35.2970347211306 9.2654591170256 -11.391528686527 0 0 0 0 0 0
4.40258327722549 0 28.1749366521835 0 -31.8229142328828 0 0 14.274321603775 0 -59.8850089593006 -18.5028208375154 50.1348671884741 -27.7331002099949 0.531513685707639 5.58693046413556 -11.4664400732769 5.54962791391764 23.8338702613093 33.3745631912785 20.4269882332934 -21.0076632992369 23.1258337842949 0 0 0 0 0 44.675853658643 -38.6469828523597 22.2396111469213 25.66709274991 0 0 0 0 0 111.140543182119 3.15406874950925 -12.7487872380989 -68.8089307931634 0 0 15.5044433497126 -3.53313456258249 -1.99306247774462 85.5339807986974 14.6757871181584 6.52537902259045 -66.9841569639353 0 0 34.7890701584886 7.1626091738724 -10.5196546300507 0 0 0 0 0 0
4.52434751987457 0 28.0607216835022 0 -33.688800705551 0 0 14.4946671724319 0 -54.6122103522795 -22.4082824832436 44.2621316511392 -27.8114224286083 -0.928983486700353 9.32207029652367 -15.69179841825 6.63835463561838 24.163009470481 34.6050209452994 20.2703018965339 -16.947819723097 20.7733031907309 0 0 0 0 0 42.9681668649464 -34.6703214654757 18.9563012050198 22.2406293150302 0 0 0 0 0 102.711484297016 0.669440733312393 -13.8031508962823 -65.4700337985377 0 0 13.9025675115141 -3.49521030561571 -1.45016520139109 78.8743616557777 13.7984849632655 6.94949288489589 -65.269574576587 0 0 33.5432339446986 5.80328565101009 -9.66209940572518 0 0 0 0 0 0
4.62064088582992 0 28.0775287389755 0 -35.5861789437024 0 0 14.9595966458321 0 -49.2345457116217 -25.4208329527078 38.1993390835166 -25.9751607872377 -2.55676065060591 12.5542099422346 -19.6069645148799 6.90345180527363 22.8687845847127 35.0716603702842 18.931008167838 -12.8840745189341 19.8680179653064 0 0 0 0 0 40.5544984688843 -32.1547640104874 15.3207009427016 20.4696022443809 0 0 0 0 0 92.5324638262625 -1.59109408230461 -13.5598274200937 -59.2023243670538 0 0 11.5761845382744 -4.49011138736874 -0.65316386542493 70.6900543990901 13.0218824995953 7.33503839423594 -60.1485924350457 0 0 31.0079754103402 4.73039666073565 -8.99279390268734 0 0 0 0 0 0
